<svg width="140" height="118" xmlns="http://www.w3.org/2000/svg">

 <g>
  <title>background</title>
  <rect fill="#ffffff" id="canvas_background" height="120" width="142" y="-1" x="-1"/>
 </g>
 <g>
  <title>Layer 1</title>
  <g id="svg_1">
   <path id="svg_2" d="m0.452,1.48l21.458,0l0,9.073l-12.025,0l0,14.185l9.505,0l0,9.001l-9.505,0l0,18.505l-9.433,0l0,-50.764z"/>
   <path id="svg_3" d="m24.156,26.898c0,-19.442 6.337,-25.85 14.473,-25.85c8.137,0 14.474,6.408 14.474,25.85c0,19.37 -6.337,25.778 -14.474,25.778c-8.136,0 -14.473,-6.408 -14.473,-25.778zm19.442,0.072c0,-9.36 -1.224,-16.417 -4.969,-16.417c-3.672,0 -4.968,7.057 -4.968,16.417c0,9.361 1.296,16.778 4.968,16.778c3.745,0 4.969,-7.417 4.969,-16.778z"/>
   <path id="svg_4" d="m65.949,26.106l0,26.138l-8.497,0l0,-50.764l4.969,0l13.537,23.546l0,-23.546l8.497,0l0,50.764l-4.104,0l-14.402,-26.138z"/>
   <path id="svg_5" d="m88.148,10.553l0,-9.073l25.922,0l0,9.073l-8.064,0l0,41.691l-9.648,0l0,-41.691l-8.21,0z"/>
   <path id="svg_6" d="m115.004,50.012l2.881,-7.993c1.729,0.864 5.256,1.944 8.064,1.944c2.808,0 4.176,-1.44 4.176,-3.6c0,-6.481 -13.896,-15.625 -13.896,-27.002c0,-9.721 6.625,-12.313 12.674,-12.313c3.744,0 7.199,1.08 8.713,1.8l-2.809,8.425c-1.729,-0.648 -3.961,-1.08 -5.545,-1.08c-2.16,0 -3.601,1.08 -3.601,3.168c0,6.192 14.041,15.913 14.041,27.002c0,8.208 -5.185,12.241 -13.609,12.241c-4.032,0 -8.066,-1.008 -11.089,-2.592z"/>
   <path id="svg_7" d="m0.668,65.48l9.505,0l0,50.764l-9.505,0l0,-50.764z"/>
   <path id="svg_8" d="m24.949,90.105l0,26.139l-8.497,0l0,-50.764l4.969,0l13.537,23.545l0,-23.545l8.497,0l0,50.764l-4.104,0l-14.402,-26.139z"/>
   <path id="svg_9" d="m57.269,96.802l0,-31.322l9.505,0l0,32.475c0,7.128 0.432,10.513 4.033,10.513c3.6,0 4.031,-3.384 4.031,-10.513l0,-32.475l9.217,0l0,31.321c0,14.187 -3.097,20.45 -13.394,20.45c-10.369,0.001 -13.392,-6.119 -13.392,-20.449z"/>
   <path id="svg_10" d="m86.964,114.012l2.882,-7.992c1.727,0.863 5.256,1.943 8.063,1.943s4.176,-1.439 4.176,-3.6c0,-6.481 -13.896,-15.625 -13.896,-27.002c0,-9.721 6.623,-12.313 12.672,-12.313c3.744,0 7.201,1.08 8.714,1.8l-2.81,8.426c-1.729,-0.648 -3.959,-1.08 -5.543,-1.08c-2.16,0 -3.602,1.08 -3.602,3.168c0,6.191 14.041,15.912 14.041,27.002c0,8.207 -5.186,12.24 -13.609,12.24c-4.031,0 -8.064,-1.008 -11.088,-2.592z"/>
   <path id="svg_11" d="m115.412,65.48l21.458,0l0,9.072l-12.024,0l0,11.521l9.072,0l0,9.072l-9.072,0l0,12.457l12.456,0l0,8.642l-21.89,0l0,-50.764z"/>
  </g>
 </g>
</svg>